<svg xmlns="http://www.w3.org/2000/svg" xmlns:xlink="http://www.w3.org/1999/xlink" viewBox="0,0,256,256" width="100px" height="100px" fill-rule="nonzero"><g fill="#ecfa73" fill-rule="nonzero" stroke="none" stroke-width="1" stroke-linecap="butt" stroke-linejoin="miter" stroke-miterlimit="10" stroke-dasharray="" stroke-dashoffset="0" font-family="none" font-weight="none" font-size="none" text-anchor="none" style="mix-blend-mode: normal"><g transform="scale(4,4)"><path d="M40,7.4668c-1.4175,0 -2.83506,0.54014 -3.91406,1.61914c-1.72718,1.72718 -2.06685,4.31909 -1.0293,6.39258l-6.01562,8.42187c-2.32402,-0.17741 -7.61313,-0.26327 -11.41602,2.20313c-0.839,0.544 -1.37852,1.39775 -1.47852,2.34375c-0.092,0.877 0.21566,1.743 0.84766,2.375l6.03125,6.03125l-14.43945,15.73242c-0.691,0.757 -0.707,1.93803 0,2.70703c0.747,0.815 2.01313,0.86809 2.82812,0.12109l15.73438,-14.4375l6.02734,6.02734c0.558,0.558 1.40092,0.90523 2.16992,0.86523c0.95,-0.05 2.00678,-0.65319 2.55078,-1.49219c2.46717,-3.80365 2.38119,-9.09368 2.20313,-11.41797l8.44141,-6.0293c1.91275,0.94414 4.45828,0.89914 6.37305,-1.01563c2.158,-2.158 2.158,-5.67012 0,-7.82812l-11,-11c-1.079,-1.079 -2.49656,-1.61914 -3.91406,-1.61914zM40,11.46484c0.393,0 0.78594,0.14972 1.08594,0.44922l11,11c0.599,0.599 0.599,1.57287 0,2.17188c-0.6,0.599 -1.57187,0.599 -2.17188,0c-0.00903,-0.00903 -0.02013,-0.01461 -0.0293,-0.02344c-0.05855,-0.05641 -0.12166,-0.10423 -0.18555,-0.15234c-0.04044,-0.03054 -0.07897,-0.06473 -0.12109,-0.0918c-0.06204,-0.0397 -0.12788,-0.0692 -0.19336,-0.10156c-0.05476,-0.02717 -0.10753,-0.05824 -0.16406,-0.08008c-0.05274,-0.02032 -0.108,-0.0311 -0.16211,-0.04687c-0.06846,-0.01993 -0.13522,-0.04222 -0.20508,-0.05469c-0.06653,-0.01198 -0.13375,-0.0143 -0.20117,-0.01953c-0.05863,-0.00446 -0.11702,-0.01436 -0.17578,-0.01367c-0.06968,0.00073 -0.13946,0.01148 -0.20898,0.01953c-0.05942,0.00692 -0.11901,0.0112 -0.17773,0.02344c-0.05838,0.01216 -0.11437,0.03324 -0.17187,0.05078c-0.06783,0.02064 -0.13542,0.03839 -0.20117,0.06641c-0.05243,0.02243 -0.10137,0.05477 -0.15234,0.08203c-0.06528,0.03479 -0.13146,0.06683 -0.19336,0.10938c-0.01075,0.00739 -0.02255,0.0119 -0.0332,0.01953l-10.5,7.5c-0.03303,0.02356 -0.05864,0.05294 -0.08984,0.07813c-0.04943,0.04009 -0.09734,0.08056 -0.14258,0.125c-0.0511,0.04984 -0.09766,0.10207 -0.14258,0.15625c-0.03616,0.04389 -0.07119,0.08798 -0.10352,0.13477c-0.04644,0.06677 -0.08727,0.13586 -0.125,0.20703c-0.01862,0.03539 -0.03623,0.0709 -0.05273,0.10742c-0.04102,0.08986 -0.07423,0.18112 -0.10156,0.27539c-0.00614,0.02155 -0.01216,0.04265 -0.01758,0.06445c-0.02881,0.11332 -0.04799,0.22741 -0.05664,0.34375c-0.00053,0.00786 -0.00152,0.01556 -0.00195,0.02344c-0.0095,0.15204 -0.00271,0.30395 0.02344,0.45508c0.20335,1.47585 0.37522,5.21966 -0.66797,8.1582c-0.125,0.352 -0.56803,0.46127 -0.83203,0.19727l-13.23242,-13.23242c-0.253,-0.253 -0.17194,-0.69441 0.16406,-0.81641c3.41207,-1.23894 7.65185,-0.74363 8.10547,-0.68555c0.45167,0.10979 0.90202,0.03996 1.29883,-0.16016c0.01192,-0.0057 0.02336,-0.01165 0.03516,-0.01758c0.08558,-0.04527 0.1687,-0.09469 0.24805,-0.15234c0.04847,-0.03403 0.09341,-0.07118 0.13867,-0.10937c0.04329,-0.03734 0.08436,-0.07608 0.125,-0.11719c0.05256,-0.05274 0.10189,-0.10745 0.14844,-0.16602c0.02245,-0.02777 0.04902,-0.05103 0.07031,-0.08008l7.5,-10.5c0.00903,-0.01266 0.01474,-0.02626 0.02344,-0.03906c0.03657,-0.05368 0.06298,-0.11174 0.09375,-0.16797c0.03135,-0.05733 0.06657,-0.1127 0.0918,-0.17187c0.02957,-0.06942 0.047,-0.14118 0.06836,-0.21289c0.016,-0.05364 0.03748,-0.10578 0.04883,-0.16016c0.0129,-0.0619 0.01645,-0.12484 0.02344,-0.1875c0.00746,-0.06703 0.01885,-0.13403 0.01953,-0.20117c0.00061,-0.05676 -0.00752,-0.11329 -0.01172,-0.16992c-0.00525,-0.07011 -0.00894,-0.13986 -0.02148,-0.20898c-0.0119,-0.06592 -0.03419,-0.12867 -0.05273,-0.19336c-0.01635,-0.05696 -0.02744,-0.11449 -0.04883,-0.16992c-0.02184,-0.05653 -0.05291,-0.10931 -0.08008,-0.16406c-0.03235,-0.06536 -0.06189,-0.13145 -0.10156,-0.19336c-0.0241,-0.03751 -0.05517,-0.07124 -0.08203,-0.10742c-0.05234,-0.07066 -0.10556,-0.1409 -0.16797,-0.20508c-0.00692,-0.00713 -0.01053,-0.01639 -0.01758,-0.02344c-0.599,-0.599 -0.599,-1.57287 0,-2.17188c0.3,-0.2995 0.69294,-0.44922 1.08594,-0.44922z"></path></g></g></svg>
